<svg width="125" height="28" viewBox="0 0 125 28" fill="none" xmlns="http://www.w3.org/2000/svg">
<path fill-rule="evenodd" clip-rule="evenodd" d="M19.2185 6.92921C19.2185 10.401 16.633 13.2154 13.4435 13.2154C10.254 13.2154 7.66848 10.401 7.66848 6.92921C7.66848 3.45817 10.254 0.643677 13.4435 0.643677C16.633 0.643677 19.2185 3.45817 19.2185 6.92921ZM5.94145 14.787C2.752 14.787 0.166397 17.6007 0.166397 21.0724C0.166397 24.5439 2.752 27.3581 5.94145 27.3581C9.13103 27.3581 11.7168 24.5439 11.7168 21.0724C11.7168 17.6007 9.13103 14.787 5.94145 14.787ZM20.9455 14.7865C17.756 14.7865 15.1704 17.6007 15.1704 21.0724C15.1704 24.5439 17.756 27.3581 20.9455 27.3581C24.1349 27.3581 26.7205 24.5439 26.7205 21.0724C26.7205 17.6007 24.1349 14.7865 20.9455 14.7865Z" fill="#B3B7BC"/>
<path fill-rule="evenodd" clip-rule="evenodd" d="M47.0398 20.9999C47.1151 21.9324 47.8004 23.1193 48.9876 23.1193H49.6822C49.9515 23.1193 50.1722 22.8791 50.1722 22.5857V5.95754H50.1692C50.1552 5.6774 49.9425 5.45304 49.6822 5.45304H47.5298C47.2695 5.45304 47.0569 5.6774 47.0424 5.95754H47.0398V7.30868C45.721 5.53932 43.6417 4.80493 41.5566 4.80493C36.8172 4.80493 32.9752 8.9899 32.9752 14.1526C32.9752 19.3157 36.8172 23.5008 41.5566 23.5008V23.5012C43.6417 23.5012 45.9141 22.6201 47.0395 20.9977L47.0398 20.9999ZM41.5651 20.2291C38.5508 20.2291 36.1072 17.5088 36.1072 14.1526C36.1072 10.797 38.5508 8.07656 41.5651 8.07656C44.5792 8.07656 47.0226 10.797 47.0226 14.1526C47.0226 17.5088 44.5792 20.2291 41.5651 20.2291Z" fill="#B3B7BC"/>
<path fill-rule="evenodd" clip-rule="evenodd" d="M82.1087 20.9995C82.184 21.932 82.8693 23.1189 84.0565 23.1189H84.7512C85.0205 23.1189 85.2409 22.8787 85.2409 22.5854V5.95717H85.2382C85.2241 5.67704 85.0112 5.45268 84.7512 5.45268H82.5987C82.3384 5.45268 82.1258 5.67704 82.1112 5.95717H82.1087V7.30831C80.7898 5.53896 78.7105 4.80457 76.6254 4.80457C71.886 4.80457 68.0441 8.98953 68.0441 14.1523C68.0441 19.3153 71.886 23.5004 76.6254 23.5004V23.5008C78.7105 23.5008 80.983 22.6197 82.1085 20.9974L82.1087 20.9995ZM76.6338 20.2288C73.6198 20.2288 71.176 17.5085 71.176 14.1523C71.176 10.7966 73.6198 8.07619 76.6338 8.07619C79.6482 8.07619 82.0914 10.7966 82.0914 14.1523C82.0914 17.5085 79.6482 20.2288 76.6338 20.2288Z" fill="#B3B7BC"/>
<path fill-rule="evenodd" clip-rule="evenodd" d="M121.312 20.9995C121.387 21.932 122.072 23.1189 123.26 23.1189H123.954C124.223 23.1189 124.444 22.8787 124.444 22.5854V5.95717H124.441C124.427 5.67704 124.214 5.45268 123.954 5.45268H121.802C121.541 5.45268 121.329 5.67704 121.314 5.95717H121.312V7.30831C119.993 5.53896 117.914 4.80457 115.829 4.80457C111.089 4.80457 107.247 8.98953 107.247 14.1523C107.247 19.3153 111.089 23.5004 115.829 23.5004V23.5008C117.914 23.5008 120.186 22.6197 121.311 20.9974L121.312 20.9995ZM115.837 20.2288C112.823 20.2288 110.379 17.5085 110.379 14.1523C110.379 10.7966 112.823 8.07619 115.837 8.07619C118.851 8.07619 121.295 10.7966 121.295 14.1523C121.295 17.5085 118.851 20.2288 115.837 20.2288Z" fill="#B3B7BC"/>
<path fill-rule="evenodd" clip-rule="evenodd" d="M104.524 21.5725L104.523 12.9681H104.524C104.524 8.11788 101.714 4.84583 97.2349 4.84583C95.0966 4.84583 93.3437 6.19271 92.7246 7.34971C92.5908 6.44503 92.1498 5.49408 90.7824 5.49408H90.0854C89.8158 5.49408 89.5957 5.73447 89.5957 6.02781V21.0423V21.0446V22.6574H89.5984C89.6125 22.9371 89.8253 23.1618 90.0856 23.1618H92.2381C92.2711 23.1618 92.3034 23.1575 92.3346 23.1508C92.3488 23.1479 92.3621 23.1418 92.3759 23.1375C92.392 23.1321 92.4086 23.128 92.4239 23.1212C92.443 23.1125 92.4604 23.1009 92.4782 23.0901C92.4869 23.0843 92.4961 23.0802 92.5045 23.0741C92.526 23.059 92.5457 23.0409 92.5647 23.0223C92.5678 23.0189 92.5716 23.0166 92.5747 23.0135C92.5961 22.9909 92.6157 22.9661 92.633 22.9403L92.6331 22.9398C92.687 22.8592 92.7197 22.7622 92.7251 22.6574H92.7278V12.8347C92.7278 10.2298 94.6668 8.11788 97.0584 8.11788C99.4499 8.11788 101.389 10.2298 101.389 12.8347L101.391 21.0452L101.391 21.0423C101.391 21.0496 101.392 21.0571 101.392 21.0649V22.6574H101.395C101.409 22.9371 101.622 23.1618 101.882 23.1618H104.035C104.068 23.1618 104.1 23.1575 104.131 23.1508C104.144 23.1483 104.156 23.1428 104.168 23.1389C104.186 23.1334 104.204 23.1286 104.221 23.1212C104.239 23.1132 104.255 23.1022 104.271 23.092C104.281 23.0857 104.292 23.0812 104.302 23.0741C104.322 23.0599 104.34 23.0427 104.358 23.0257C104.362 23.0211 104.367 23.0177 104.372 23.0131C104.392 22.9916 104.41 22.9685 104.427 22.9442C104.428 22.9424 104.429 22.941 104.431 22.9391C104.484 22.8592 104.516 22.7629 104.522 22.6588C104.522 22.6581 104.522 22.6574 104.522 22.6574H104.525V21.5728L104.524 21.5725Z" fill="#B3B7BC"/>
<path fill-rule="evenodd" clip-rule="evenodd" d="M55.3134 18.6182C56.7504 19.7026 58.3188 20.2292 59.8261 20.2292C61.2621 20.2292 62.7466 19.4183 62.7466 18.007C62.7466 16.1227 59.5118 15.8295 57.4794 15.0771C55.4467 14.3247 53.6959 12.7693 53.6959 10.2506C53.6959 6.39639 56.8486 4.80457 59.7912 4.80457C61.6556 4.80457 63.5793 5.47425 64.8265 6.43357C65.256 6.78806 64.9944 7.19506 64.9944 7.19506L63.8039 9.04715C63.6701 9.25576 63.4362 9.43599 63.1003 9.21021C62.7644 8.98457 61.5865 8.07633 59.7912 8.07633C57.9959 8.07633 56.9144 8.97946 56.9144 10.0989C56.9144 11.4412 58.32 11.8634 59.9663 12.3209C62.8353 13.1633 65.965 14.1758 65.965 18.007C65.965 21.4028 63.049 23.5014 59.8261 23.5014C57.3838 23.5014 55.3044 22.743 53.5605 21.349C53.1972 20.953 53.451 20.5853 53.451 20.5853L54.6356 18.7425C54.8766 18.398 55.1805 18.5182 55.3134 18.6182Z" fill="#B3B7BC"/>
</svg>
