<svg width="123" height="23" viewBox="0 0 123 23" fill="none" xmlns="http://www.w3.org/2000/svg">
<path d="M12.5861 12.174C13.5585 12.2587 14.3752 12.6824 15.0753 13.4873C15.7754 14.2922 16.1255 15.3937 16.1255 16.7917C16.1255 18.4863 15.6198 19.8843 14.5697 20.901C13.5196 21.9178 12.0416 22.4261 10.0581 22.4261H0.490295V2.34554H10.0192C11.6916 2.34554 13.0529 2.85391 14.0641 3.82828C15.0753 4.84502 15.5809 6.15831 15.5809 7.81051C15.5809 9.08144 15.2698 10.0558 14.6086 10.8184C13.9474 11.5809 13.2862 11.9622 12.5473 12.0469L12.5861 12.174ZM5.04083 10.6489H9.00795C9.66914 10.6489 10.2136 10.4371 10.6415 10.0134C11.0304 9.5898 11.2638 9.08144 11.2638 8.36124C11.2638 7.72578 11.0693 7.25978 10.6804 6.8785C10.2914 6.49722 9.78582 6.32777 9.20242 6.32777H5.04083V10.6489ZM9.24131 18.4439C9.9414 18.4439 10.5248 18.2321 10.9137 17.8508C11.3027 17.4695 11.4971 16.9188 11.4971 16.1986C11.4971 15.5208 11.3027 15.0124 10.8748 14.6311C10.4859 14.2499 9.9414 14.038 9.3191 14.038H5.04083V18.4439H9.24131ZM31.8773 22.4261H27.4823V20.9858C26.3933 22.2567 24.9543 22.8921 23.2429 22.8921C21.6094 22.8921 20.3259 22.299 19.3536 21.1552C18.3813 20.0114 17.8757 18.4863 17.8757 16.6223V7.38687H22.2317V15.6055C22.2317 16.4952 22.4651 17.2153 22.8929 17.7661C23.3207 18.3168 23.9041 18.571 24.6042 18.571C25.4988 18.571 26.1988 18.2321 26.7045 17.5543C27.2101 16.8764 27.4434 15.8173 27.4434 14.377V7.38687H31.8384L31.8773 22.4261ZM45.4511 22.4261H33.7831V21.5365L39.267 11.1996H33.9386V7.38687H45.3733V8.27652L39.8893 18.6134H45.4122V22.4261H45.4511ZM58.986 22.4261H47.3569V21.5365L52.8019 11.1996H47.4735V7.38687H58.9082V8.27652L53.4242 18.6134H58.9471L58.986 22.4261ZM65.5201 10.9455H73.4932V15.2666H65.5201V22.4685H60.9696V2.34554H74.1933V6.66668H65.5201V10.9455ZM105.736 16.1562H95.6236C95.8959 18.0203 97.1793 19.0794 99.0851 19.0794C100.602 19.0794 102.119 18.4439 103.247 17.4695L104.919 20.6468C103.363 22.0872 101.38 22.8921 99.0851 22.8921C94.4568 22.8921 91.3064 19.8419 91.3064 14.9277C91.3064 12.5977 92.0065 10.6913 93.4067 9.20853C94.8068 7.72578 96.557 6.96323 98.6184 6.96323C100.602 6.96323 102.274 7.68342 103.636 9.16616C104.997 10.6489 105.697 12.5553 105.736 14.9701V16.1562ZM96.8293 11.4538C96.2848 11.8775 95.8959 12.4706 95.7014 13.1908H101.38C101.185 12.4282 100.835 11.8351 100.33 11.4115C99.8241 11.0302 99.2407 10.8184 98.6184 10.8184C97.9572 10.8184 97.3738 11.0302 96.8293 11.4538ZM89.634 16.1562H79.5217C79.794 18.0203 81.0775 19.0794 82.9832 19.0794C84.5001 19.0794 86.0169 18.4439 87.1448 17.4695L88.8173 20.6468C87.2615 22.0872 85.278 22.8921 82.9832 22.8921C78.3549 22.8921 75.2046 19.8419 75.2046 14.9277C75.2046 12.5977 75.9046 10.6913 77.3048 9.20853C78.705 7.72578 80.4552 6.96323 82.5165 6.96323C84.5001 6.96323 86.1725 7.68342 87.5338 9.16616C88.895 10.6489 89.5951 12.5553 89.634 14.9701V16.1562ZM80.7274 11.4538C80.1829 11.8775 79.794 12.4706 79.5995 13.1908H85.2779C85.0835 12.4282 84.7334 11.8351 84.2278 11.4115C83.7222 11.0302 83.1388 10.8184 82.5165 10.8184C81.8553 10.8184 81.2719 11.0302 80.7274 11.4538ZM122.732 22.4261H118.337V21.2399C117.209 22.3414 115.809 22.8921 114.059 22.8921C112.192 22.8921 110.598 22.1296 109.275 20.6468C107.953 19.1641 107.292 17.2577 107.292 14.9277C107.292 12.5977 107.953 10.6913 109.275 9.20853C110.598 7.72578 112.192 6.96323 114.059 6.96323C115.809 6.96323 117.248 7.51396 118.337 8.61543V0.862793H122.732V22.4261ZM117.365 17.7237C118.026 17.0035 118.376 16.0715 118.376 14.9277C118.376 13.8262 118.026 12.8942 117.365 12.1317C116.704 11.4115 115.887 11.0302 114.993 11.0302C114.02 11.0302 113.242 11.4115 112.62 12.1317C111.998 12.8518 111.687 13.7839 111.687 14.9277C111.687 16.0715 111.998 17.0459 112.62 17.7661C113.242 18.4863 114.02 18.8252 114.993 18.8252C115.887 18.8252 116.665 18.4439 117.365 17.7237Z" fill="#B3B7BC"/>
</svg>
