<svg width="100" height="36" viewBox="0 0 100 36" fill="none" xmlns="http://www.w3.org/2000/svg">
<path d="M42.7741 19.0422C42.7741 24.1921 39.0755 27.9869 34.5363 27.9869C29.9972 27.9869 26.2985 24.1921 26.2985 19.0422C26.2985 13.8561 29.9972 10.0975 34.5363 10.0975C39.0755 10.0975 42.7741 13.8561 42.7741 19.0422ZM39.168 19.0422C39.168 15.8241 37.0243 13.6222 34.5363 13.6222C32.0483 13.6222 29.9047 15.8241 29.9047 19.0422C29.9047 22.2281 32.0483 24.4623 34.5363 24.4623C37.0243 24.4623 39.168 22.2241 39.168 19.0422Z" fill="#B3B7BC"/>
<path d="M60.5457 19.0422C60.5457 24.1921 56.847 27.9869 52.3079 27.9869C47.7688 27.9869 44.0701 24.1921 44.0701 19.0422C44.0701 13.8601 47.7688 10.0975 52.3079 10.0975C56.847 10.0975 60.5457 13.8561 60.5457 19.0422ZM56.9396 19.0422C56.9396 15.8241 54.7959 13.6222 52.3079 13.6222C49.8199 13.6222 47.6762 15.8241 47.6762 19.0422C47.6762 22.2281 49.8199 24.4623 52.3079 24.4623C54.7959 24.4623 56.9396 22.2241 56.9396 19.0422Z" fill="#B3B7BC"/>
<path d="M77.5766 10.6379V26.6964C77.5766 33.3021 74.0001 36 69.772 36C65.792 36 63.3965 33.1005 62.4931 30.7292L65.6328 29.3056C66.1918 30.7615 67.5617 32.4794 69.7683 32.4794C72.4748 32.4794 74.1519 30.6606 74.1519 27.2368V25.9504H74.0261C73.2189 27.0352 71.6639 27.9829 69.7017 27.9829C65.5957 27.9829 61.8341 24.0872 61.8341 19.0745C61.8341 14.0255 65.5957 10.0975 69.7017 10.0975C71.6602 10.0975 73.2152 11.0452 74.0261 12.0978H74.1519V10.642H77.5766V10.6379ZM74.4074 19.0745C74.4074 15.9249 72.4785 13.6222 70.0238 13.6222C67.5358 13.6222 65.4513 15.9249 65.4513 19.0745C65.4513 22.1918 67.5358 24.4623 70.0238 24.4623C72.4785 24.4623 74.4074 22.1918 74.4074 19.0745Z" fill="#B3B7BC"/>
<path d="M83.2229 1.22571V27.4387H79.7057V1.22571H83.2229Z" fill="#B3B7BC"/>
<path d="M96.9305 21.9868L99.7295 24.0193C98.8261 25.4751 96.6491 27.9835 92.8875 27.9835C88.2225 27.9835 84.7386 24.0556 84.7386 19.0388C84.7386 13.7196 88.2521 10.0941 92.484 10.0941C96.7454 10.0941 98.8298 13.7881 99.5111 15.7844L99.885 16.8006L88.9075 21.7529C89.7479 23.5474 91.0549 24.4629 92.8875 24.4629C94.7239 24.4629 95.9975 23.4789 96.9305 21.9868ZM88.3151 18.7686L95.6532 15.4496C95.2497 14.3326 94.0353 13.5542 92.6061 13.5542C90.7735 13.5542 88.2225 15.3166 88.3151 18.7686Z" fill="#B3B7BC"/>
<path d="M12.985 16.7155V12.9206H24.7252C24.84 13.582 24.8992 14.3644 24.8992 15.2113C24.8992 18.0584 24.1847 21.579 21.8818 24.0874C19.6419 26.628 16.7799 27.983 12.9887 27.983C5.96155 27.983 0.0525513 21.7484 0.0525513 14.0942C0.0525513 6.43999 5.96155 0.205322 12.9887 0.205322C16.8762 0.205322 19.6456 1.86682 21.7263 4.03242L19.2679 6.71018C17.7759 5.18579 15.7544 4.00016 12.985 4.00016C7.85347 4.00016 3.84009 8.50476 3.84009 14.0942C3.84009 19.6836 7.85347 24.1882 12.985 24.1882C16.3134 24.1882 18.209 22.7324 19.4234 21.4096C20.4083 20.3369 21.0562 18.8045 21.3116 16.7115L12.985 16.7155Z" fill="#B3B7BC"/>
</svg>
