<svg width="136" height="36" viewBox="0 0 136 36" fill="none" xmlns="http://www.w3.org/2000/svg">
<path d="M0.720764 7.68641C0.720764 7.68641 4.08669 22.7379 4.62388 25.181C5.25088 28.0325 6.38062 29.082 9.63785 28.3742L11.7396 19.0424C12.2723 16.7244 12.6296 15.0719 12.972 12.7139H13.0323C13.2729 15.095 13.6155 16.7313 14.0538 19.0505C14.0538 19.0505 14.9094 23.2869 15.3475 25.512C15.7868 27.7363 17.0094 29.1382 20.1999 28.375L25.2078 7.688H21.1645L19.4548 16.632C18.9951 19.2354 18.578 21.2697 18.2564 23.6514H18.1994C17.9071 21.2934 17.5354 19.3397 17.068 16.8032L15.2878 7.688H11.075L9.1708 16.5736C8.63132 19.2736 8.12675 21.454 7.80588 23.7549H7.74777C7.41918 21.588 6.98152 18.8478 6.50759 16.234C6.50759 16.234 5.37626 9.87865 4.97932 7.688L0.721158 7.68859L0.720764 7.68641ZM39.2658 7.68641V28.3734H43.1154V23.9806V7.68542H39.2658V7.68641ZM93.4838 7.68641V22.9475C93.4838 25.0517 93.8467 26.5258 94.623 27.4264C95.3013 28.2141 96.4185 28.7242 97.7571 28.7242C98.8953 28.7242 100.015 28.4886 100.543 28.2741L100.493 24.9911C100.101 25.0966 99.6487 25.181 99.0309 25.181C97.7195 25.181 97.2797 24.2645 97.2797 22.3752V16.5364H100.632V12.5784H97.2797V7.68647H93.4836L93.4838 7.68641ZM30.6627 12.4821C28.2703 12.4821 26.3712 13.2151 25.336 13.868L26.0935 16.6989C27.041 16.0471 28.5495 15.5075 29.9778 15.5075C32.3426 15.5009 32.7293 16.9667 32.7293 17.9068V18.1292C27.5763 18.1207 24.3214 20.0666 24.3214 24.0329C24.3214 26.4546 25.9783 28.7241 28.8595 28.7241C30.6331 28.7241 32.1164 27.9522 33.0054 26.7154H33.0925C33.0925 26.7154 33.6812 29.4014 36.9244 28.3742C36.754 27.2563 36.6987 26.0644 36.6987 24.6288V19.1024C36.6987 15.5802 35.3205 12.4822 30.6627 12.4822L30.6627 12.4821ZM53.6906 12.4821C51.2817 12.4821 50.1992 13.8143 49.5428 14.9446H49.4857V12.8329H45.8119V28.3744H49.682V19.26C49.682 18.8327 49.7268 18.3808 49.8635 17.9878C50.1841 17.0701 50.9665 15.9967 52.2156 15.9967C53.7771 15.9967 54.5079 17.4374 54.5079 19.5166V28.3742H58.3738V19.1495C58.3738 18.7416 58.425 18.2504 58.535 17.8897C58.8529 16.8459 59.6963 15.9965 60.8574 15.9965C62.4405 15.9965 63.2003 17.4122 63.2003 19.8587V28.3743H67.069V19.2208C67.069 14.3935 64.8228 12.4822 62.2872 12.4822C61.1643 12.4822 60.278 12.7894 59.4766 13.3263C58.803 13.7773 58.2001 14.4182 57.673 15.262H57.616C57.0028 13.5871 55.5641 12.4822 53.69 12.4822L53.6906 12.4821ZM74.9425 12.4821C72.5506 12.4821 70.6518 13.2151 69.6157 13.868L70.3744 16.6989C71.3208 16.0471 72.8303 15.5075 74.2579 15.5075C76.6211 15.5009 77.0086 16.9667 77.0086 17.9068V18.1292C71.8564 18.1207 68.6011 20.0666 68.6011 24.0329C68.6011 26.4546 70.2589 28.7241 73.1416 28.7241C74.9138 28.7241 76.3976 27.9522 77.2849 26.7154H77.3724C77.3724 26.7154 77.961 29.4014 81.2046 28.3742C81.034 27.2563 80.9793 26.0644 80.9793 24.6288V19.1024C80.9793 15.5802 79.6008 12.4822 74.9424 12.4822L74.9425 12.4821ZM91.0139 12.4821C89.532 12.4821 87.8459 13.526 87.1382 15.7638H87.0301V12.8327H83.5463V28.3742H87.5178V20.416C87.5178 19.9866 87.5416 19.6123 87.6039 19.2691C87.8976 17.602 89.0661 16.5363 90.7431 16.5363C91.2034 16.5363 91.5329 16.5908 91.8894 16.6469V12.5782C91.5905 12.5123 91.386 12.4819 91.0141 12.4819L91.0139 12.4821ZM32.8536 20.8832V22.822C32.8536 23.1088 32.8307 23.4047 32.7579 23.6634C32.46 24.7402 31.4378 25.6502 30.1599 25.6502C29.0946 25.6502 28.2483 24.9904 28.2483 23.5945C28.2483 21.4595 30.4019 20.8693 32.8537 20.8832H32.8536ZM77.1333 20.8832V22.822C77.1333 23.1088 77.11 23.4047 77.0376 23.6634C76.7397 24.7402 75.7179 25.6502 74.44 25.6502C73.3745 25.6502 72.528 24.9904 72.528 23.5945C72.528 21.4595 74.6817 20.8693 77.1334 20.8832H77.1333Z" fill="#B3B7BC"/>
<path d="M121.445 0.205322C120.203 0.205322 119.215 0.962691 119.215 1.8847L119.969 11.2111C120.053 11.773 120.684 12.2065 121.446 12.2065C122.21 12.2054 122.839 11.7723 122.924 11.2111L123.682 1.8847C123.682 0.96277 122.691 0.205401 121.447 0.205401L121.445 0.205322ZM109.146 7.68655C108.5 7.70326 107.767 8.23633 107.301 9.11845C106.678 10.2931 106.788 11.6057 107.518 12.0662L115.296 16.019C115.781 16.2162 116.441 15.8397 116.824 15.1207C116.824 15.1206 116.823 15.1204 116.824 15.1203C117.207 14.3978 117.178 13.5855 116.774 13.2252L109.749 7.8483C109.566 7.73299 109.361 7.6811 109.146 7.68667L109.146 7.68655ZM133.745 7.68655C133.53 7.68098 133.325 7.73287 133.143 7.84819L126.117 13.225C125.716 13.5854 125.686 14.3977 126.068 15.1202L126.068 15.1206C126.452 15.8395 127.109 16.2161 127.595 16.0189L135.377 12.0663C136.109 11.6058 136.214 10.2932 135.595 9.11853C135.127 8.23639 134.392 7.70334 133.747 7.68663L133.745 7.68655ZM115.586 19.9915C115.486 19.99 115.388 20.0069 115.297 20.0444L107.519 23.9924C106.789 24.455 106.679 25.7681 107.302 26.944C107.924 28.1163 109.02 28.6736 109.749 28.2139L116.775 22.8412C117.179 22.4765 117.209 21.6643 116.825 20.9426L116.828 20.9441C116.517 20.3562 116.022 19.9978 115.586 19.9913L115.586 19.9915ZM127.308 19.9915C126.872 19.9979 126.378 20.3564 126.067 20.9443L126.07 20.9427C125.688 21.6645 125.717 22.4766 126.119 22.8413L133.145 28.214C133.873 28.6737 134.97 28.1164 135.594 26.9441C136.214 25.7682 136.109 24.4551 135.376 23.9926L127.597 20.0446C127.506 20.0071 127.408 19.9901 127.308 19.9916L127.308 19.9915ZM121.444 23.8567C120.683 23.8577 120.054 24.2893 119.971 24.8497L119.216 34.1758C119.216 35.0993 120.204 35.8551 121.446 35.8551C122.691 35.8551 123.681 35.0993 123.681 34.1758L122.925 24.8497C122.84 24.2893 122.211 23.8578 121.447 23.8567H121.444H121.444Z" fill="#B3B7BC"/>
</svg>
